<?xml version="1.0" encoding="UTF-8"?>
<svg xmlns="http://www.w3.org/2000/svg" version="1.1" viewBox="0 0 4096 4096">
  <defs>
    <style>
      .cls-1 {
        fill: #13171f;
      }

      .cls-2 {
        fill: #eee;
      }
    </style>
  </defs>
  <!-- Generator: Adobe Illustrator 28.7.4, SVG Export Plug-In . SVG Version: 1.2.0 Build 166)  -->
  <g>
    <g id="Ebene_1">
      <g>
        <circle class="cls-1" cx="2048" cy="2048" r="2027.5"/>
        <g>
          <path class="cls-2" d="M2005.9965776,952.5457738c395.8393876,142.9718543,549.5458591,546.3925029,621.0653391,900.1656428,2.7669479,14.2694166,13.5433846,25.6475018,27.6416329,29.1848094,71.9220122,17.4438106,150.8885417-6.3736646,153.9748945-65.6154022.4696891-9.459915-2.4151929-118.4834752-2.4151929-118.4834752-5.7028118-170.0767948,1.6772855-264.6085833-7.0445174-434.8194871-.2583904-4.3735958.2641233-8.7582478,1.5431764-12.9485952,17.1082306-57.564452,63.2002093-12.6802746,99.161113-51.3920535,2.0974259-2.4358723,4.5117998-4.5794686,7.1788313-6.3736646,126.8694934-78.094513,90.8414327,614.0876715,78.2282127,808.6527942-1.5890397,24.3030321-1.1625522,48.6957433,1.2747534,72.9283425,3.2874141,31.8012683,3.8912124,85.0718735,3.6899463,94.8673685-3.3545711,153.6393146-80.5097059,146.9973293-146.5276403,146.9973293-3.0941332.1465987-6.1952278-.0108516-9.2586489-.4696891-106.7424764-21.9388212-24.0857958-276.416739-49.177922-353.1021848-5.3672318-16.3703233-73.8005638-11.3384666-127.0711689-6.7091422-18.8854326,1.7475137-33.5201175,17.273666-34.149509,36.2293267-41.8649816,1264.0023424-1476.0112757,1754.2392046-2249.642442,662.7290546-.7470698-1.0378614-1.4412125-2.1125772-2.0798177-3.2204619C57.9971611,2118.9972854,170.1740262,1321.6156985,716.4324199,963.4146026c74.7398396-48.5071204,193.2903693-115.2630644,297.7517619-125.0584058,48.9096013-4.6293245,56.4239102,69.1712393,7.7154725,75.2765832-25.8972928,3.2874653-50.4527777,5.0318566-65.0786585,7.648418-1.7102498.2822434-3.3935753.7086798-5.0318566,1.2747534-68.7687072,22.7439878-137.2019367,46.0247193-199.5969793,82.4553633l-3.3545711,2.1469234c-484.400146,340.7572854-628.0428531,1015.2274411-311.3042577,1504.9948189,733.913057,1314.9918638,2504.6570011,183.1594991,1914.923446-1027.169706l-4.9646997-8.7219053c-157.0612473-277.4230694-632.1355874-589.0627023-917.6766615-289.2311227-.8050643.8722212-1.610231,1.7443401-2.3482407,2.6836159-102.9182162,125.729361-198.1209599,407.0436427-161.7574216,447.8352393.8722212,15.0285153,60.3822795,21.6705005,75.0082626,46.9639951,37.4370255,67.0914216-2.3482407,168.3323523-75.1423717,191.2105516-15.1106188,4.52173-25.9158224,17.8286321-27.2391008,33.5457108-9.7282357,113.1831955-9.8624472,232.9414241-10.1307678,347.667796v4.1596354c22.5427218,223.9511981,186.9167047,232.2704689,114.4579489,347.8019051-.7625793,1.2243857-1.4352749,2.502415-2.0127631,3.8242602-87.6213803,188.4597788-366.7217351,154.3102697-437.7044715-14.4246147-13.446437-32.1538423-8.7694065-69.0334447,12.2777424-96.8128723,116.6719781-157.2623087,136.2626609-339.7508526,128.0104447-537.1339051-1.610231-89.902464,15.3638905-82.05278-66.3534119-100.0333342-6.4738881-1.4183832-12.4782919-4.4667555-17.4438106-8.8561168-67.0914216-59.6442697-48.7083352-176.1820363,29.6543961-215.9673026,12.5782083-6.069718,20.8380002-18.5235427,21.5363914-32.4722235,15.4310474-427.9090789,431.8003936-883.4597908,912.4432317-684.7350327l82.9251036,30.2581431ZM1127.635698,1806.3512197c1.2961494.0692044,2.5951653.0692044,3.8913147,0,33.2102332-4.1596354,107.8159637.4025321,151.8949745-14.7600923,35.8939515-12.2777424,29.2518639-42.8043598-8.7889599-46.0247193-89.902464-7.4471519-194.5651227-17.8463427-258.77156.5367437-35.8939515,10.2649793-39.9193754,35.75974-5.0318566,48.5742261,34.8875188,12.8144861,87.5542233,12.2105855,116.8060872,11.6738418ZM1227.8702983,2609.5697276c-9.5752898,9.0203237-21.3135245,15.4209125-34.0824545,18.5842501-80.5097059,31.1305179-138.7450108,10.9359345-191.9485614-29.0504955-20.1274265-14.9614607-46.9639951,8.923069-32.2039029,28.6479633,60.3822795,81.0463472,225.1587946,91.7140634,301.9113973,18.3160318,27.9771105-26.8365686-13.686605-61.4557668-43.6764786-36.4977497Z"/>
          <path class="cls-2" d="M1811.6998779,1996.6223932c45.3538665-168.6678299,248.23826-103.4549599,341.4283429,20.1274265,3.0191959,3.9583693,26.8365686,37.5712371,28.8492294,42.0662476,9.6611811,20.1274265,37.101548,45.7563987,40.254853,12.9485952,3.5558372-94.4646316-4.6293245-191.6802407-14.0220825-286.2790838-2.187924-22.3364394-7.6120754-44.2360515-16.1019002-65.0116039-14.4917716-35.5584739-29.6544984-73.2638201-29.1848094-95.3369552,1.7444425-96.276231,47.4336842-83.0592127,90.4393101-48.7754922,50.6762588,41.0650359,83.3384873,100.275652,91.0431083,165.0449381,3.2874141,26.0985589,5.7028118,49.5805565,6.7091422,57.2289745,12.7473292,125.662204,1.6772855,155.0482795-14.9614607,284.4005322h0c-32.0025344,237.3023255-70.3118836,221.8042235-145.655419,172.0222986-16.5181504-10.7236121-31.6595836-23.4316299-45.0854435-37.8396601-29.5873415-32.0025344-64.0722257-58.5037278-95.4711667-88.7620245-6.942144-6.8049637-13.1281582-14.3406685-18.4501409-22.4756672-21.4021799-32.3381144-54.7466246-82.3211006-89.4999319-63.6027414-28.446902,14.1570107-74.6729898,161.4897152-129.0840344,233.6129935-129.5535188,143.7768674-134.1828432-286.8158274-148.1377689-348.4728603h0c-8.5205368-131.4992273-96.9471861-260.1134703-98.8257378-389.5999345-1.1256977-38.4205267,25.3957656-72.1443672,62.9989432-80.1071738,150.4188526-28.5809088,143.2400214,445.487101,182.756967,538.8111907Z"/>
          <path class="cls-2" d="M3896.9683369,1489.8809962c-9.2586489,161.6903671-186.178695,181.9519027-323.8504232,195.9069307-15.2610053,1.5991746-27.986017,12.3807301-32.0698961,27.1720462-38.5104105,138.6109016,17.3097014,320.1601698,12.680377,465.6814797-2.5495068,62.3949402-100.6371324,80.0400169-134.5182185,31.8684253l-.7379074-1.0734873c-7.5252628-11.7844051-11.8065178-25.3464217-12.4117492-39.3154748-1.0065351-22.8781993-2.348036-67.4267968-2.348036-145.1857299,0-2.4151929-6.7091422-229.8551736-7.1788313-239.9188869-4.6964814-198.523492-50.3185662-398.925638-25.5618153-593.0882286.7882751-7.7831413,4.1944423-15.0684409,9.6611811-20.6641701,25.293597-24.958017,69.4394576,11.4726781,100.6371324,2.6165613,229.1173686-78.8324204,403.5550648,84.3339661,415.497125,292.7869599.3353752,1.6771832.2682183,21.536289.2010613,23.2135746ZM3534.6746602,1471.0283231c-12.2106879,105.4006684,53.1362913,130.2244739,148.808724,96.5445516,1.3238926-.4445052,2.6228061-.9596481,3.8914171-1.543074,143.4414922-64.4748603,19.1208914-315.3296816-118.0807383-285.4740195-15.6709083,3.4861209-27.3005248,16.6880902-28.7820725,32.6734896-5.0322661,52.3313293-.3357847,105.3335115-6.0388012,157.6648408l.2014708.1342115Z"/>
          <path class="cls-2" d="M3184.3904052,1308.7341578c100.6373372,10.5334023,95.8065419,69.5737715,85.4746104,140.3552417-5.3860685,36.3902577-7.2955369,73.2106883-5.702607,109.9628359,7.3798926,174.4376962,10.0637132,235.3567193,15.0955699,410.1297908v135.7929718c0,146.9301724-194.5651227,198.1209599-171.4185003-70.3788358,7.4470495-169.070362,11.5397327-305.601446,2.6166637-473.9337982-1.1406443-22.0730327-.8722212-58.1011957-.8722212-80.1742284,0-100.1003888-63.3343184-155.8533438,35.3571055-171.1501797,13.0679626-1.9116182,26.3290014-2.1146246,39.4493792-.6037982Z"/>
        </g>
      </g>
    </g>
  </g>
</svg>